<?xml version="1.0" standalone="no"?>
<!DOCTYPE svg PUBLIC "-//W3C//DTD SVG 20010904//EN"
 "http://www.w3.org/TR/2001/REC-SVG-20010904/DTD/svg10.dtd">
<svg version="1.0" xmlns="http://www.w3.org/2000/svg"
 width="100.000000pt" height="100.000000pt" viewBox="0 0 100.000000 100.000000"
 preserveAspectRatio="xMidYMid meet">

<g transform="translate(0.000000,100.000000) scale(0.100000,-0.100000)"
fill="#000000" stroke="none">
<path d="M0 500 l0 -500 500 0 500 0 0 500 0 500 -500 0 -500 0 0 -500z m640
305 c39 -20 80 -76 80 -108 0 -30 -49 -91 -91 -113 -98 -50 -211 -34 -286 41
-50 49 -56 86 -21 130 42 54 74 65 186 65 72 0 112 -5 132 -15z m-410 -630 c0
-27 -18 -32 -51 -15 -32 18 -23 40 16 40 31 0 35 -3 35 -25z m620 6 c0 -19
-18 -31 -46 -31 -8 0 -14 10 -14 25 0 21 5 25 30 25 23 0 30 -5 30 -19z"/>
<path d="M358 771 c-28 -25 -33 -36 -33 -76 0 -59 27 -85 90 -85 36 0 48 5 69
30 24 29 25 30 36 10 14 -27 46 -42 87 -42 89 0 114 110 40 175 -29 25 -92 22
-120 -5 l-22 -23 -22 23 c-32 32 -84 30 -125 -7z m114 -8 c28 -32 30 -58 5
-94 -20 -30 -28 -34 -67 -34 -39 0 -46 4 -58 27 -25 53 14 118 72 118 19 0 39
-7 48 -17z m173 -9 c50 -54 23 -124 -46 -124 -46 0 -79 36 -79 86 0 63 80 87
125 38z"/>
<path d="M425 701 c-8 -15 3 -31 21 -31 9 0 14 7 12 17 -4 20 -24 28 -33 14z"/>
<path d="M560 690 c0 -11 7 -20 15 -20 8 0 15 9 15 20 0 11 -7 20 -15 20 -8 0
-15 -9 -15 -20z"/>
</g>
</svg>
